# 3ds Max Wavefront OBJ Exporter v0.99 - (c)2007 guruware
# File Created: 16.08.2022 22:22:34

mtllib Books_01_Verylow.mtl

#
# object Books_01_Verylow
#

v  -0.718911 0.399194 0.000000
v  0.105830 0.817985 0.000000
v  0.753254 -0.457011 0.000000
v  -0.071487 -0.875802 0.000000
v  -0.718911 0.399194 0.209637
v  -0.071487 -0.875802 0.209637
v  0.753254 -0.457011 0.209637
v  0.105830 0.817985 0.209637
v  -0.754577 0.381084 0.040000
v  -0.107153 -0.893913 0.040000
v  -0.107153 -0.893913 0.169637
v  -0.754577 0.381084 0.169637
v  -0.098236 -0.889385 0.010000
v  -0.098236 -0.889385 0.199637
v  -0.745660 0.385611 0.010000
v  -0.745660 0.385611 0.199637
v  -0.645894 0.542348 0.212297
v  -0.268025 0.650644 0.212297
v  0.086913 -0.587820 0.212297
v  -0.290957 -0.696116 0.212297
v  -0.645918 0.542341 0.454068
v  -0.290981 -0.696123 0.454068
v  0.086913 -0.587821 0.440235
v  -0.268025 0.650643 0.440235
v  -0.684346 0.531328 0.252297
v  -0.329409 -0.707136 0.252297
v  -0.329409 -0.707136 0.415475
v  -0.684346 0.531328 0.415475
v  -0.319796 -0.704381 0.222297
v  -0.319802 -0.704383 0.445123
v  0.503235 -0.468505 0.212297
v  0.148297 0.769959 0.212297
v  0.148297 0.769959 0.443258
v  0.503235 -0.468505 0.443258
v  -0.445330 0.573674 0.458691
v  -0.044490 0.595630 0.458691
v  0.028726 -0.741080 0.436582
v  -0.372164 -0.763038 0.456690
v  -0.445419 0.573669 0.627820
v  -0.372164 -0.763038 0.655707
v  0.028726 -0.741080 0.675618
v  -0.044490 0.595630 0.654452
v  -0.485271 0.571487 0.498691
v  -0.412055 -0.765223 0.498691
v  -0.412055 -0.765223 0.613716
v  -0.485271 0.571487 0.585164
v  -0.402083 -0.764677 0.468191
v  -0.402083 -0.764677 0.644218
v  0.469508 -0.716937 0.436582
v  0.396292 0.619773 0.449645
v  0.396292 0.619773 0.646111
v  0.469508 -0.716937 0.667277
v  -0.592468 0.521455 0.637093
v  0.245140 0.754307 0.643936
v  0.603700 -0.535494 0.665208
v  -0.233907 -0.768346 0.665208
v  -0.592467 0.521456 0.797983
v  -0.233911 -0.768347 0.804251
v  0.603700 -0.535494 0.816709
v  0.245140 0.754307 0.797983
v  -0.631006 0.510742 0.676787
v  -0.272446 -0.779059 0.705217
v  -0.272446 -0.779059 0.763677
v  -0.631006 0.510742 0.757983
v  -0.262811 -0.776381 0.675210
v  -0.262812 -0.776381 0.793821
v  -0.621372 0.513420 0.646859
v  -0.621371 0.513420 0.787983
v  -0.352980 0.624036 0.798616
v  -0.001863 0.619729 0.798616
v  -0.016604 -0.581927 0.798616
v  -0.367721 -0.577620 0.798616
v  -0.352986 0.624036 1.036213
v  -0.367726 -0.577620 1.036213
v  -0.016604 -0.581927 1.041868
v  -0.001863 0.619729 1.041868
v  -0.392977 0.624527 0.838616
v  -0.407718 -0.577130 0.838616
v  -0.407718 -0.577130 0.995569
v  -0.392977 0.624527 0.995569
v  -0.397719 -0.577252 0.808616
v  -0.397720 -0.577252 1.025730
v  0.374511 -0.586725 0.798616
v  0.389252 0.614931 0.798616
v  0.389252 0.614931 1.092968
v  0.374511 -0.586725 1.092968
v  0.193694 0.617330 1.064605
v  0.178954 -0.584326 1.064605
v  -0.382978 0.624404 0.808616
v  -0.382979 0.624404 1.025730
v  -0.475286 0.572034 0.468691
v  -0.475308 0.572032 0.615833
v  -0.674733 0.534083 0.222297
v  -0.674739 0.534081 0.445123
# 94 vertices

vn -0.142824 -0.072524 -0.987087
vn 0.000000 0.000000 -1.000000
vn -0.142824 -0.072524 0.987087
vn 0.000000 0.000000 1.000000
vn -0.880120 -0.446912 -0.160182
vn -0.880120 -0.446912 0.160182
vn 0.452758 -0.891633 0.000000
vn 0.452758 -0.891634 0.000000
vn 0.891633 0.452758 0.000000
vn -0.452758 0.891633 0.000000
vn -0.153983 -0.044131 -0.987087
vn -0.122124 -0.035000 0.991897
vn -0.122124 -0.035000 0.991898
vn 0.013552 0.003884 0.999901
vn -0.948887 -0.271946 -0.160182
vn -0.948627 -0.271872 0.161844
vn 0.275504 -0.961300 -0.000000
vn 0.961300 0.275504 0.000000
vn -0.275504 0.961300 0.000000
vn -0.183630 -0.005043 -0.982982
vn -0.018220 0.010087 -0.999783
vn -0.018217 0.010088 -0.999783
vn -0.183583 -0.005039 -0.982991
vn -0.215184 0.007404 0.976546
vn -0.214308 0.007449 0.976738
vn -0.020395 0.015967 0.999664
vn -0.020410 0.015967 0.999664
vn -0.985824 -0.053965 -0.158870
vn -0.985953 -0.050616 0.159171
vn -0.986609 -0.050740 0.155011
vn 0.054691 -0.998503 0.000000
vn 0.998503 0.054691 0.000000
vn -0.054691 0.998503 -0.000000
vn -0.145243 -0.060601 -0.987538
vn 0.008731 -0.016714 -0.999822
vn -0.145880 -0.060781 -0.987433
vn -0.162717 -0.038078 0.985938
vn -0.162568 -0.038034 0.985964
vn -0.009403 0.007074 0.999931
vn -0.949737 -0.267599 -0.162451
vn -0.950422 -0.267697 -0.158227
vn -0.951198 -0.263713 0.160245
vn -0.951328 -0.263753 0.159401
vn 0.267839 -0.963464 0.000000
vn 0.267839 -0.963463 0.000000
vn 0.267840 -0.963464 0.000000
vn 0.963464 0.267839 -0.000000
vn -0.267839 0.963463 0.000000
vn -0.267839 0.963464 0.000000
vn -0.160169 0.001965 -0.987088
vn -0.175235 0.002150 0.984524
vn -0.065867 0.000808 0.997828
vn -0.987013 0.012108 -0.160183
vn -0.987144 0.012109 0.159372
vn -0.012266 -0.999925 0.000000
vn 0.999925 -0.012266 0.000000
vn 0.012266 0.999925 0.000000
vn -0.129506 0.001589 0.991577
vn -0.143518 0.001761 0.989646
vn -0.010948 0.012555 -0.999861
vn 0.017995 0.016816 0.999697
vn -0.054691 0.998503 0.000000
vn -0.006708 -0.001923 0.999976
vn -0.679742 -0.194811 -0.707106
vn -0.667683 -0.191354 0.719433
vn -0.678844 -0.204177 -0.705324
vn -0.672984 -0.202679 -0.711347
vn -0.685143 -0.187202 0.703942
vn -0.683956 -0.186866 0.705185
vn -0.707053 0.008673 -0.707107
vn -0.707053 0.008673 -0.707108
vn -0.712723 0.008743 0.701391
vn -0.714861 -0.038626 -0.698199
vn -0.714962 -0.038632 -0.698095
vn -0.729846 -0.025559 0.683133
vn -0.724109 -0.025118 0.689227
vn -0.630480 -0.320148 -0.707107
vn -0.630480 -0.320148 0.707107
# 78 vertex normals

vt 0.321352 0.223360 0.000000
vt 0.321352 0.431229 0.000000
vt 0.000000 0.431229 0.000000
vt 0.000000 0.223360 0.000000
vt 0.000000 0.007107 0.000000
vt 0.321352 0.007107 0.000000
vt 0.321352 0.214975 0.000000
vt 0.000000 0.214975 0.000000
vt 0.283307 0.880046 0.000000
vt 0.604658 0.880046 0.000000
vt 0.604658 0.909179 0.000000
vt 0.283307 0.909179 0.000000
vt 0.406864 0.926553 0.000000
vt 0.409112 0.919811 0.000000
vt 0.415853 0.917564 0.000000
vt 0.623722 0.917564 0.000000
vt 0.623722 0.964675 0.000000
vt 0.415853 0.964675 0.000000
vt 0.409112 0.962428 0.000000
vt 0.406864 0.955686 0.000000
vt 0.000000 0.824550 0.000000
vt 0.321352 0.824550 0.000000
vt 0.321352 0.871662 0.000000
vt 0.000000 0.871662 0.000000
vt 0.000000 0.872940 0.000000
vt 0.207869 0.872940 0.000000
vt 0.214611 0.875187 0.000000
vt 0.216858 0.881929 0.000000
vt 0.216858 0.911062 0.000000
vt 0.214611 0.917804 0.000000
vt 0.207869 0.920051 0.000000
vt 0.000000 0.920051 0.000000
vt 0.628992 0.612953 0.000000
vt 0.628992 0.701290 0.000000
vt 0.339470 0.701290 0.000000
vt 0.339470 0.612953 0.000000
vt 0.048674 0.637547 0.000000
vt 0.338197 0.637547 0.000000
vt 0.338197 0.725944 0.000000
vt 0.048674 0.725944 0.000000
vt 0.626521 0.425731 0.000000
vt 0.916043 0.425731 0.000000
vt 0.916043 0.462402 0.000000
vt 0.626521 0.462402 0.000000
vt 0.630265 0.744991 0.000000
vt 0.632513 0.738250 0.000000
vt 0.639254 0.736002 0.000000
vt 0.727591 0.736002 0.000000
vt 0.727591 0.787227 0.000000
vt 0.639249 0.790335 0.000000
vt 0.632511 0.788325 0.000000
vt 0.630265 0.781662 0.000000
vt 0.606552 0.849635 0.000000
vt 0.896075 0.849635 0.000000
vt 0.896075 0.901538 0.000000
vt 0.606552 0.901538 0.000000
vt 0.730109 0.789184 0.000000
vt 0.827435 0.789184 0.000000
vt 0.827435 0.840408 0.000000
vt 0.730109 0.841087 0.000000
vt 0.300905 0.439762 0.000000
vt 0.300912 0.529958 0.000000
vt 0.000000 0.530038 0.000000
vt 0.000033 0.439718 0.000000
vt 0.323299 0.414915 0.000000
vt 0.624214 0.415001 0.000000
vt 0.624286 0.505336 0.000000
vt 0.323399 0.505346 0.000000
vt 0.626597 0.531617 0.000000
vt 0.927425 0.528403 0.000000
vt 0.927701 0.554251 0.000000
vt 0.626804 0.551049 0.000000
vt 0.728861 0.695055 0.000000
vt 0.731106 0.688201 0.000000
vt 0.737839 0.685617 0.000000
vt 0.828066 0.681098 0.000000
vt 0.828066 0.734816 0.000000
vt 0.737839 0.730341 0.000000
vt 0.731106 0.727760 0.000000
vt 0.728861 0.720905 0.000000
vt 0.339630 0.799894 0.000000
vt 0.640466 0.803760 0.000000
vt 0.640330 0.847911 0.000000
vt 0.339470 0.851737 0.000000
vt 0.625273 0.938300 0.000000
vt 0.724478 0.940333 0.000000
vt 0.724478 0.984326 0.000000
vt 0.625273 0.982452 0.000000
vt 0.624239 0.211132 0.000000
vt 0.624130 0.406510 0.000000
vt 0.323245 0.406384 0.000000
vt 0.323325 0.211012 0.000000
vt 0.323259 0.007257 0.000000
vt 0.624113 0.007137 0.000000
vt 0.624209 0.202529 0.000000
vt 0.323331 0.202628 0.000000
vt 0.000083 0.928420 0.000000
vt 0.300986 0.930941 0.000000
vt 0.301155 0.944078 0.000000
vt 0.000318 0.946665 0.000000
vt 0.406864 0.974944 0.000000
vt 0.409112 0.968201 0.000000
vt 0.415853 0.965953 0.000000
vt 0.611226 0.965953 0.000000
vt 0.611226 1.000000 0.000000
vt 0.415853 0.997200 0.000000
vt 0.409111 0.994856 0.000000
vt 0.406864 0.988082 0.000000
vt 0.625794 0.902976 0.000000
vt 0.926678 0.902799 0.000000
vt 0.926149 0.937414 0.000000
vt 0.625273 0.937019 0.000000
vt 0.200936 0.953366 0.000000
vt 0.396309 0.951828 0.000000
vt 0.403050 0.954022 0.000000
vt 0.405297 0.960748 0.000000
vt 0.405297 0.978995 0.000000
vt 0.403050 0.985737 0.000000
vt 0.396308 0.987984 0.000000
vt 0.200936 0.987984 0.000000
vt 0.896588 0.183106 0.000000
vt 0.896588 0.262018 0.000000
vt 0.626521 0.262018 0.000000
vt 0.626521 0.183106 0.000000
vt 0.626521 0.007141 0.000000
vt 0.896588 0.007141 0.000000
vt 0.896588 0.086064 0.000000
vt 0.626521 0.086064 0.000000
vt 0.626521 0.477818 0.000000
vt 0.896587 0.477818 0.000000
vt 0.896587 0.513090 0.000000
vt 0.626521 0.513090 0.000000
vt 0.630265 0.570465 0.000000
vt 0.632513 0.563723 0.000000
vt 0.639254 0.561476 0.000000
vt 0.718166 0.561476 0.000000
vt 0.718166 0.616141 0.000000
vt 0.639253 0.614870 0.000000
vt 0.632512 0.612515 0.000000
vt 0.630265 0.605736 0.000000
vt 0.626521 0.351197 0.000000
vt 0.896588 0.351197 0.000000
vt 0.896588 0.417347 0.000000
vt 0.626521 0.417347 0.000000
vt 0.630265 0.627880 0.000000
vt 0.718166 0.627879 0.000000
vt 0.718166 0.682545 0.000000
vt 0.674216 0.687655 0.000000
vt 0.630265 0.694029 0.000000
vt 0.896588 0.349919 0.000000
vt 0.626521 0.349919 0.000000
vt 0.896588 0.130311 0.000000
vt 0.626521 0.130311 0.000000
vt 0.806067 0.561476 0.000000
vt 0.806067 0.627625 0.000000
vt 0.762117 0.621251 0.000000
vt 0.797078 0.627879 0.000000
vt 0.803820 0.630127 0.000000
vt 0.806068 0.636869 0.000000
vt 0.806068 0.672140 0.000000
vt 0.803821 0.678918 0.000000
vt 0.797080 0.681274 0.000000
vt 0.896588 0.174721 0.000000
vt 0.626521 0.174721 0.000000
vt 0.300910 0.629188 0.000000
vt 0.000021 0.629247 0.000000
vt 0.624259 0.604559 0.000000
vt 0.323372 0.604569 0.000000
vt 0.927270 0.681098 0.000000
vt 0.927270 0.732942 0.000000
vt 0.814693 0.940333 0.000000
vt 0.821435 0.942580 0.000000
vt 0.823682 0.949322 0.000000
vt 0.823682 0.968755 0.000000
vt 0.821440 0.975647 0.000000
vt 0.814713 0.978341 0.000000
vt 0.628992 0.798616 0.000000
vt 0.339470 0.798616 0.000000
vt 0.338197 0.823272 0.000000
vt 0.048674 0.823272 0.000000
vt 0.824917 0.736002 0.000000
vt 0.824917 0.787906 0.000000
vt 0.915772 0.789184 0.000000
vt 0.922514 0.791431 0.000000
vt 0.924761 0.798173 0.000000
vt 0.924761 0.834844 0.000000
vt 0.922515 0.841507 0.000000
vt 0.915777 0.843517 0.000000
vt 0.339470 0.605847 0.000000
vt 0.628992 0.605847 0.000000
vt 0.048674 0.630516 0.000000
vt 0.338197 0.630516 0.000000
vt 0.626521 0.418625 0.000000
vt 0.916043 0.418625 0.000000
vt 0.916043 0.469433 0.000000
vt 0.626521 0.469433 0.000000
vt 0.323280 0.203906 0.000000
vt 0.624196 0.204042 0.000000
vt 0.323245 0.000151 0.000000
vt 0.624100 -0.000000 0.000000
vt 0.000000 0.921329 0.000000
vt 0.300903 0.923834 0.000000
vt 0.301245 0.951215 0.000000
vt 0.000408 0.953771 0.000000
vt 0.626521 0.175999 0.000000
vt 0.896588 0.175999 0.000000
vt 0.626521 0.000000 0.000000
vt 0.896588 0.000000 0.000000
vt 0.626521 0.470711 0.000000
vt 0.896587 0.470711 0.000000
vt 0.896587 0.520231 0.000000
vt 0.626521 0.520231 0.000000
vt 0.000036 0.432507 0.000000
vt 0.300911 0.432656 0.000000
vt 0.323245 0.407669 0.000000
vt 0.624162 0.407789 0.000000
vt 0.626521 0.524510 0.000000
vt 0.927348 0.521191 0.000000
vt 0.927771 0.561464 0.000000
vt 0.626874 0.558296 0.000000
vt 0.000000 0.216253 0.000000
vt 0.321352 0.216253 0.000000
vt 0.000000 0.000000 0.000000
vt 0.321352 0.000000 0.000000
vt 0.283307 0.872940 0.000000
vt 0.604658 0.872940 0.000000
vt 0.604658 0.916286 0.000000
vt 0.283307 0.916286 0.000000
# 228 texture coords

o Books_01_Verylow
g Books_01_Verylow
usemtl Material__54
s 1
f 1/1/1 2/2/2 3/3/2 4/4/1 
f 5/5/3 6/6/3 7/7/4 8/8/4 
f 9/9/5 10/10/5 11/11/6 12/12/6 
s 2
f 10/13/7 13/14/7 4/15/7 3/16/8 7/17/8 6/18/7 14/19/7 11/20/7 
s 4
f 3/21/9 2/22/9 8/23/9 7/24/9 
s 2
f 2/25/10 1/26/10 15/27/10 9/28/10 12/29/10 16/30/10 5/31/10 8/32/10 
s 1
f 17/33/11 18/34/2 19/35/2 20/36/11 
f 21/37/12 22/38/13 23/39/14 24/40/14 
f 25/41/15 26/42/15 27/43/16 28/44/16 
s 2
f 26/45/17 29/46/17 20/47/17 19/48/17 23/49/17 22/50/17 30/51/17 27/52/17 
s 4
f 31/53/18 32/54/18 33/55/18 34/56/18 
s 2
f 32/57/19 18/58/19 24/59/19 33/60/19 
s 1
f 35/61/20 36/62/21 37/63/22 38/64/23 
f 39/65/24 40/66/25 41/67/26 42/68/27 
f 43/69/28 44/70/28 45/71/29 46/72/30 
s 2
f 44/73/31 47/74/31 38/75/31 37/76/31 41/77/31 40/78/31 48/79/31 45/80/31 
s 4
f 49/81/32 50/82/32 51/83/32 52/84/32 
s 2
f 50/85/33 36/86/33 42/87/33 51/88/33 
s 1
f 53/89/34 54/90/35 55/91/35 56/92/36 
f 57/93/37 58/94/38 59/95/39 60/96/39 
f 61/97/40 62/98/41 63/99/42 64/100/43 
s 2
f 62/101/44 65/102/44 56/103/44 55/104/45 59/105/46 58/106/44 66/107/45 63/108/45 
s 4
f 55/109/47 54/110/47 60/111/47 59/112/47 
s 2
f 54/113/48 53/114/49 67/115/49 61/116/49 64/117/49 68/118/49 57/119/49 60/120/49 
s 1
f 69/121/50 70/122/2 71/123/2 72/124/50 
f 73/125/51 74/126/51 75/127/52 76/128/52 
f 77/129/53 78/130/53 79/131/54 80/132/54 
s 2
f 78/133/55 81/134/55 72/135/55 71/136/55 75/137/55 74/138/55 82/139/55 79/140/55 
s 4
f 83/141/56 84/142/56 85/143/56 86/144/56 
s 2
f 84/145/57 70/146/57 76/147/57 87/148/57 85/149/57 
s 1
f 70/122/2 84/150/2 83/151/2 71/123/2 
f 75/127/52 88/152/58 87/153/58 76/128/52 
s 2
f 71/136/55 83/154/55 86/155/55 88/156/55 75/137/55 
f 70/146/57 69/157/57 89/158/57 77/159/57 80/160/57 90/161/57 73/162/57 76/147/57 
s 1
f 88/152/58 86/163/59 85/164/59 87/153/58 
f 36/62/21 50/165/60 49/166/60 37/63/22 
f 41/67/26 52/167/61 51/168/61 42/68/27 
s 2
f 37/76/31 49/169/31 52/170/31 41/77/31 
f 36/86/33 35/171/62 91/172/62 43/173/62 46/174/62 92/175/62 39/176/62 42/87/33 
s 1
f 18/34/2 32/177/2 31/178/2 19/35/2 
f 23/39/14 34/179/63 33/180/63 24/40/14 
s 2
f 19/48/17 31/181/17 34/182/17 23/49/17 
f 18/58/19 17/183/19 93/184/19 25/185/19 28/186/19 94/187/19 21/188/19 24/59/19 
s 1
f 17/33/11 20/36/11 29/189/64 93/190/64 
f 22/38/13 21/37/12 94/191/65 30/192/65 
f 26/42/15 25/41/15 93/193/64 29/194/64 
f 28/44/16 27/43/16 30/195/65 94/196/65 
f 53/89/34 56/92/36 65/197/66 67/198/67 
f 58/94/38 57/93/37 68/199/68 66/200/69 
f 62/98/41 61/97/40 67/201/67 65/202/66 
f 64/100/43 63/99/42 66/203/69 68/204/68 
f 69/121/50 72/124/50 81/205/70 89/206/71 
f 74/126/51 73/125/51 90/207/72 82/208/72 
f 78/130/53 77/129/53 89/209/71 81/210/70 
f 80/132/54 79/131/54 82/211/72 90/212/72 
f 35/61/20 38/64/23 47/213/73 91/214/74 
f 40/66/25 39/65/24 92/215/75 48/216/76 
f 44/70/28 43/69/28 91/217/74 47/218/73 
f 46/72/30 45/71/29 48/219/76 92/220/75 
f 1/1/1 4/4/1 13/221/77 15/222/77 
f 6/6/3 5/5/3 16/223/78 14/224/78 
f 10/10/5 9/9/5 15/225/77 13/226/77 
f 12/12/6 11/11/6 14/227/78 16/228/78 
# 63 polygons

